<svg xmlns="http://www.w3.org/2000/svg" viewBox="0 0 320 520" width="320" height="520"><path d="M 20 20 Q 0 20 0 40 L 0 180 Q 0 200 20 200 L 120 200 Q 128 200 128 210 L 128 480 L 160 510 L 192 480 L 192 210 Q 192 200 200 200 L 300 200 Q 320 200 320 180 L 320 40 Q 320 20 300 20 Z" fill="#E5C794"/><line x1="24" y1="20" x2="24" y2="200" stroke="#CFA56A" stroke-width="1.2" stroke-opacity="0.18" stroke-linecap="round"/>
<line x1="58" y1="20" x2="58" y2="200" stroke="#CFA56A" stroke-width="1.2" stroke-opacity="0.1" stroke-linecap="round"/>
<line x1="96" y1="20" x2="96" y2="200" stroke="#CFA56A" stroke-width="1.2" stroke-opacity="0.22" stroke-linecap="round"/>
<line x1="132" y1="20" x2="132" y2="200" stroke="#CFA56A" stroke-width="1.2" stroke-opacity="0.08" stroke-linecap="round"/>
<line x1="168" y1="20" x2="168" y2="200" stroke="#CFA56A" stroke-width="1.2" stroke-opacity="0.16" stroke-linecap="round"/>
<line x1="210" y1="20" x2="210" y2="200" stroke="#CFA56A" stroke-width="1.2" stroke-opacity="0.1" stroke-linecap="round"/>
<line x1="246" y1="20" x2="246" y2="200" stroke="#CFA56A" stroke-width="1.2" stroke-opacity="0.2" stroke-linecap="round"/>
<line x1="282" y1="20" x2="282" y2="200" stroke="#CFA56A" stroke-width="1.2" stroke-opacity="0.12" stroke-linecap="round"/>
<line x1="132" y1="200" x2="132" y2="480" stroke="#CFA56A" stroke-width="1.0" stroke-opacity="0.18" stroke-linecap="round"/>
<line x1="148" y1="200" x2="148" y2="490" stroke="#CFA56A" stroke-width="1.0" stroke-opacity="0.1" stroke-linecap="round"/>
<line x1="160" y1="200" x2="160" y2="490" stroke="#CFA56A" stroke-width="1.0" stroke-opacity="0.22" stroke-linecap="round"/>
<line x1="172" y1="200" x2="172" y2="490" stroke="#CFA56A" stroke-width="1.0" stroke-opacity="0.1" stroke-linecap="round"/>
<line x1="188" y1="200" x2="188" y2="480" stroke="#CFA56A" stroke-width="1.0" stroke-opacity="0.18" stroke-linecap="round"/>
<path d="M 20 20 Q 0 20 0 40 L 0 180 Q 0 200 20 200 L 120 200 Q 128 200 128 210 L 128 480 L 160 510 L 192 480 L 192 210 Q 192 200 200 200 L 300 200 Q 320 200 320 180 L 320 40 Q 320 20 300 20 Z" fill="none" stroke="#9A7340" stroke-width="1.5" stroke-opacity="0.55"/><g transform="translate(160 40)">
<path d="M -36 -4 Q 0 -20 36 -4" stroke="#5A3820" stroke-width="1.4" fill="none" transform="scale(0.9)"/>
<ellipse cx="-36" cy="-7" rx="5.2" ry="2.4" fill="#5A3820" transform="scale(0.9)"/>
<ellipse cx="-24" cy="-9" rx="5.2" ry="2.4" fill="#3F2412" transform="scale(0.9)"/>
<ellipse cx="-12" cy="-10.5" rx="5.2" ry="2.4" fill="#5A3820" transform="scale(0.9)"/>
<ellipse cx="0" cy="-12" rx="5.2" ry="2.4" fill="#3F2412" transform="scale(0.9)"/>
<ellipse cx="12" cy="-10.5" rx="5.2" ry="2.4" fill="#5A3820" transform="scale(0.9)"/>
<ellipse cx="24" cy="-9" rx="5.2" ry="2.4" fill="#3F2412" transform="scale(0.9)"/>
<ellipse cx="36" cy="-7" rx="5.2" ry="2.4" fill="#5A3820" transform="scale(0.9)"/>
</g><circle cx="128.48" cy="46.97" r="1.65" fill="#3F2412"/>
<circle cx="140.30" cy="46.97" r="1.65" fill="#3F2412"/>
<circle cx="148.18" cy="46.97" r="1.65" fill="#3F2412"/>
<circle cx="160.00" cy="46.97" r="1.65" fill="#3F2412"/>
<circle cx="163.94" cy="46.97" r="1.65" fill="#3F2412"/>
<circle cx="171.82" cy="46.97" r="1.65" fill="#3F2412"/>
<circle cx="175.76" cy="46.97" r="1.65" fill="#3F2412"/>
<circle cx="179.70" cy="46.97" r="1.65" fill="#3F2412"/>
<circle cx="183.64" cy="46.97" r="1.65" fill="#3F2412"/>
<circle cx="191.52" cy="46.97" r="1.65" fill="#3F2412"/>
<circle cx="132.42" cy="50.91" r="1.65" fill="#3F2412"/>
<circle cx="140.30" cy="50.91" r="1.65" fill="#3F2412"/>
<circle cx="152.12" cy="50.91" r="1.65" fill="#3F2412"/>
<circle cx="156.06" cy="50.91" r="1.65" fill="#3F2412"/>
<circle cx="160.00" cy="50.91" r="1.65" fill="#3F2412"/>
<circle cx="171.82" cy="50.91" r="1.65" fill="#3F2412"/>
<circle cx="191.52" cy="50.91" r="1.65" fill="#3F2412"/>
<circle cx="128.48" cy="54.85" r="1.65" fill="#3F2412"/>
<circle cx="132.42" cy="54.85" r="1.65" fill="#3F2412"/>
<circle cx="140.30" cy="54.85" r="1.65" fill="#3F2412"/>
<circle cx="144.24" cy="54.85" r="1.65" fill="#3F2412"/>
<circle cx="156.06" cy="54.85" r="1.65" fill="#3F2412"/>
<circle cx="160.00" cy="54.85" r="1.65" fill="#3F2412"/>
<circle cx="163.94" cy="54.85" r="1.65" fill="#3F2412"/>
<circle cx="179.70" cy="54.85" r="1.65" fill="#3F2412"/>
<circle cx="183.64" cy="54.85" r="1.65" fill="#3F2412"/>
<circle cx="187.58" cy="54.85" r="1.65" fill="#3F2412"/>
<circle cx="191.52" cy="54.85" r="1.65" fill="#3F2412"/>
<circle cx="132.42" cy="58.79" r="1.65" fill="#3F2412"/>
<circle cx="156.06" cy="58.79" r="1.65" fill="#3F2412"/>
<circle cx="163.94" cy="58.79" r="1.65" fill="#3F2412"/>
<circle cx="167.88" cy="58.79" r="1.65" fill="#3F2412"/>
<circle cx="175.76" cy="58.79" r="1.65" fill="#3F2412"/>
<circle cx="179.70" cy="58.79" r="1.65" fill="#3F2412"/>
<circle cx="187.58" cy="58.79" r="1.65" fill="#3F2412"/>
<circle cx="128.48" cy="62.73" r="1.65" fill="#3F2412"/>
<circle cx="144.24" cy="62.73" r="1.65" fill="#3F2412"/>
<circle cx="148.18" cy="62.73" r="1.65" fill="#3F2412"/>
<circle cx="171.82" cy="62.73" r="1.65" fill="#3F2412"/>
<circle cx="179.70" cy="62.73" r="1.65" fill="#3F2412"/>
<circle cx="191.52" cy="62.73" r="1.65" fill="#3F2412"/>
<circle cx="140.30" cy="66.67" r="1.65" fill="#3F2412"/>
<circle cx="156.06" cy="66.67" r="1.65" fill="#3F2412"/>
<circle cx="160.00" cy="66.67" r="1.65" fill="#3F2412"/>
<circle cx="163.94" cy="66.67" r="1.65" fill="#3F2412"/>
<circle cx="175.76" cy="66.67" r="1.65" fill="#3F2412"/>
<circle cx="179.70" cy="66.67" r="1.65" fill="#3F2412"/>
<circle cx="128.48" cy="70.61" r="1.65" fill="#3F2412"/>
<circle cx="136.36" cy="70.61" r="1.65" fill="#3F2412"/>
<circle cx="144.24" cy="70.61" r="1.65" fill="#3F2412"/>
<circle cx="152.12" cy="70.61" r="1.65" fill="#3F2412"/>
<circle cx="160.00" cy="70.61" r="1.65" fill="#3F2412"/>
<circle cx="167.88" cy="70.61" r="1.65" fill="#3F2412"/>
<circle cx="175.76" cy="70.61" r="1.65" fill="#3F2412"/>
<circle cx="183.64" cy="70.61" r="1.65" fill="#3F2412"/>
<circle cx="191.52" cy="70.61" r="1.65" fill="#3F2412"/>
<circle cx="128.48" cy="74.55" r="1.65" fill="#3F2412"/>
<circle cx="140.30" cy="74.55" r="1.65" fill="#3F2412"/>
<circle cx="156.06" cy="74.55" r="1.65" fill="#3F2412"/>
<circle cx="163.94" cy="74.55" r="1.65" fill="#3F2412"/>
<circle cx="171.82" cy="74.55" r="1.65" fill="#3F2412"/>
<circle cx="183.64" cy="74.55" r="1.65" fill="#3F2412"/>
<circle cx="191.52" cy="74.55" r="1.65" fill="#3F2412"/>
<circle cx="116.67" cy="78.48" r="1.65" fill="#3F2412"/>
<circle cx="120.61" cy="78.48" r="1.65" fill="#3F2412"/>
<circle cx="136.36" cy="78.48" r="1.65" fill="#3F2412"/>
<circle cx="163.94" cy="78.48" r="1.65" fill="#3F2412"/>
<circle cx="167.88" cy="78.48" r="1.65" fill="#3F2412"/>
<circle cx="199.39" cy="78.48" r="1.65" fill="#3F2412"/>
<circle cx="207.27" cy="78.48" r="1.65" fill="#3F2412"/>
<circle cx="215.15" cy="78.48" r="1.65" fill="#3F2412"/>
<circle cx="223.03" cy="78.48" r="1.65" fill="#3F2412"/>
<circle cx="100.91" cy="82.42" r="1.65" fill="#3F2412"/>
<circle cx="108.79" cy="82.42" r="1.65" fill="#3F2412"/>
<circle cx="112.73" cy="82.42" r="1.65" fill="#3F2412"/>
<circle cx="116.67" cy="82.42" r="1.65" fill="#3F2412"/>
<circle cx="128.48" cy="82.42" r="1.65" fill="#3F2412"/>
<circle cx="136.36" cy="82.42" r="1.65" fill="#3F2412"/>
<circle cx="163.94" cy="82.42" r="1.65" fill="#3F2412"/>
<circle cx="167.88" cy="82.42" r="1.65" fill="#3F2412"/>
<circle cx="175.76" cy="82.42" r="1.65" fill="#3F2412"/>
<circle cx="179.70" cy="82.42" r="1.65" fill="#3F2412"/>
<circle cx="183.64" cy="82.42" r="1.65" fill="#3F2412"/>
<circle cx="187.58" cy="82.42" r="1.65" fill="#3F2412"/>
<circle cx="195.45" cy="82.42" r="1.65" fill="#3F2412"/>
<circle cx="203.33" cy="82.42" r="1.65" fill="#3F2412"/>
<circle cx="207.27" cy="82.42" r="1.65" fill="#3F2412"/>
<circle cx="211.21" cy="82.42" r="1.65" fill="#3F2412"/>
<circle cx="219.09" cy="82.42" r="1.65" fill="#3F2412"/>
<circle cx="104.85" cy="86.36" r="1.65" fill="#3F2412"/>
<circle cx="108.79" cy="86.36" r="1.65" fill="#3F2412"/>
<circle cx="116.67" cy="86.36" r="1.65" fill="#3F2412"/>
<circle cx="120.61" cy="86.36" r="1.65" fill="#3F2412"/>
<circle cx="132.42" cy="86.36" r="1.65" fill="#3F2412"/>
<circle cx="136.36" cy="86.36" r="1.65" fill="#3F2412"/>
<circle cx="140.30" cy="86.36" r="1.65" fill="#3F2412"/>
<circle cx="144.24" cy="86.36" r="1.65" fill="#3F2412"/>
<circle cx="160.00" cy="86.36" r="1.65" fill="#3F2412"/>
<circle cx="163.94" cy="86.36" r="1.65" fill="#3F2412"/>
<circle cx="175.76" cy="86.36" r="1.65" fill="#3F2412"/>
<circle cx="183.64" cy="86.36" r="1.65" fill="#3F2412"/>
<circle cx="191.52" cy="86.36" r="1.65" fill="#3F2412"/>
<circle cx="195.45" cy="86.36" r="1.65" fill="#3F2412"/>
<circle cx="199.39" cy="86.36" r="1.65" fill="#3F2412"/>
<circle cx="203.33" cy="86.36" r="1.65" fill="#3F2412"/>
<circle cx="211.21" cy="86.36" r="1.65" fill="#3F2412"/>
<circle cx="215.15" cy="86.36" r="1.65" fill="#3F2412"/>
<circle cx="219.09" cy="86.36" r="1.65" fill="#3F2412"/>
<circle cx="96.97" cy="90.30" r="1.65" fill="#3F2412"/>
<circle cx="100.91" cy="90.30" r="1.65" fill="#3F2412"/>
<circle cx="104.85" cy="90.30" r="1.65" fill="#3F2412"/>
<circle cx="108.79" cy="90.30" r="1.65" fill="#3F2412"/>
<circle cx="116.67" cy="90.30" r="1.65" fill="#3F2412"/>
<circle cx="132.42" cy="90.30" r="1.65" fill="#3F2412"/>
<circle cx="144.24" cy="90.30" r="1.65" fill="#3F2412"/>
<circle cx="148.18" cy="90.30" r="1.65" fill="#3F2412"/>
<circle cx="152.12" cy="90.30" r="1.65" fill="#3F2412"/>
<circle cx="156.06" cy="90.30" r="1.65" fill="#3F2412"/>
<circle cx="163.94" cy="90.30" r="1.65" fill="#3F2412"/>
<circle cx="179.70" cy="90.30" r="1.65" fill="#3F2412"/>
<circle cx="199.39" cy="90.30" r="1.65" fill="#3F2412"/>
<circle cx="203.33" cy="90.30" r="1.65" fill="#3F2412"/>
<circle cx="211.21" cy="90.30" r="1.65" fill="#3F2412"/>
<circle cx="215.15" cy="90.30" r="1.65" fill="#3F2412"/>
<circle cx="219.09" cy="90.30" r="1.65" fill="#3F2412"/>
<circle cx="223.03" cy="90.30" r="1.65" fill="#3F2412"/>
<circle cx="100.91" cy="94.24" r="1.65" fill="#3F2412"/>
<circle cx="112.73" cy="94.24" r="1.65" fill="#3F2412"/>
<circle cx="116.67" cy="94.24" r="1.65" fill="#3F2412"/>
<circle cx="120.61" cy="94.24" r="1.65" fill="#3F2412"/>
<circle cx="128.48" cy="94.24" r="1.65" fill="#3F2412"/>
<circle cx="132.42" cy="94.24" r="1.65" fill="#3F2412"/>
<circle cx="140.30" cy="94.24" r="1.65" fill="#3F2412"/>
<circle cx="148.18" cy="94.24" r="1.65" fill="#3F2412"/>
<circle cx="156.06" cy="94.24" r="1.65" fill="#3F2412"/>
<circle cx="160.00" cy="94.24" r="1.65" fill="#3F2412"/>
<circle cx="163.94" cy="94.24" r="1.65" fill="#3F2412"/>
<circle cx="175.76" cy="94.24" r="1.65" fill="#3F2412"/>
<circle cx="179.70" cy="94.24" r="1.65" fill="#3F2412"/>
<circle cx="187.58" cy="94.24" r="1.65" fill="#3F2412"/>
<circle cx="191.52" cy="94.24" r="1.65" fill="#3F2412"/>
<circle cx="199.39" cy="94.24" r="1.65" fill="#3F2412"/>
<circle cx="203.33" cy="94.24" r="1.65" fill="#3F2412"/>
<circle cx="207.27" cy="94.24" r="1.65" fill="#3F2412"/>
<circle cx="223.03" cy="94.24" r="1.65" fill="#3F2412"/>
<circle cx="100.91" cy="98.18" r="1.65" fill="#3F2412"/>
<circle cx="116.67" cy="98.18" r="1.65" fill="#3F2412"/>
<circle cx="132.42" cy="98.18" r="1.65" fill="#3F2412"/>
<circle cx="156.06" cy="98.18" r="1.65" fill="#3F2412"/>
<circle cx="167.88" cy="98.18" r="1.65" fill="#3F2412"/>
<circle cx="171.82" cy="98.18" r="1.65" fill="#3F2412"/>
<circle cx="179.70" cy="98.18" r="1.65" fill="#3F2412"/>
<circle cx="187.58" cy="98.18" r="1.65" fill="#3F2412"/>
<circle cx="195.45" cy="98.18" r="1.65" fill="#3F2412"/>
<circle cx="199.39" cy="98.18" r="1.65" fill="#3F2412"/>
<circle cx="203.33" cy="98.18" r="1.65" fill="#3F2412"/>
<circle cx="207.27" cy="98.18" r="1.65" fill="#3F2412"/>
<circle cx="211.21" cy="98.18" r="1.65" fill="#3F2412"/>
<circle cx="215.15" cy="98.18" r="1.65" fill="#3F2412"/>
<circle cx="223.03" cy="98.18" r="1.65" fill="#3F2412"/>
<circle cx="96.97" cy="102.12" r="1.65" fill="#3F2412"/>
<circle cx="100.91" cy="102.12" r="1.65" fill="#3F2412"/>
<circle cx="104.85" cy="102.12" r="1.65" fill="#3F2412"/>
<circle cx="108.79" cy="102.12" r="1.65" fill="#3F2412"/>
<circle cx="120.61" cy="102.12" r="1.65" fill="#3F2412"/>
<circle cx="124.55" cy="102.12" r="1.65" fill="#3F2412"/>
<circle cx="128.48" cy="102.12" r="1.65" fill="#3F2412"/>
<circle cx="140.30" cy="102.12" r="1.65" fill="#3F2412"/>
<circle cx="152.12" cy="102.12" r="1.65" fill="#3F2412"/>
<circle cx="167.88" cy="102.12" r="1.65" fill="#3F2412"/>
<circle cx="171.82" cy="102.12" r="1.65" fill="#3F2412"/>
<circle cx="175.76" cy="102.12" r="1.65" fill="#3F2412"/>
<circle cx="183.64" cy="102.12" r="1.65" fill="#3F2412"/>
<circle cx="191.52" cy="102.12" r="1.65" fill="#3F2412"/>
<circle cx="203.33" cy="102.12" r="1.65" fill="#3F2412"/>
<circle cx="207.27" cy="102.12" r="1.65" fill="#3F2412"/>
<circle cx="211.21" cy="102.12" r="1.65" fill="#3F2412"/>
<circle cx="215.15" cy="102.12" r="1.65" fill="#3F2412"/>
<circle cx="219.09" cy="102.12" r="1.65" fill="#3F2412"/>
<circle cx="96.97" cy="106.06" r="1.65" fill="#3F2412"/>
<circle cx="100.91" cy="106.06" r="1.65" fill="#3F2412"/>
<circle cx="112.73" cy="106.06" r="1.65" fill="#3F2412"/>
<circle cx="124.55" cy="106.06" r="1.65" fill="#3F2412"/>
<circle cx="132.42" cy="106.06" r="1.65" fill="#3F2412"/>
<circle cx="144.24" cy="106.06" r="1.65" fill="#3F2412"/>
<circle cx="163.94" cy="106.06" r="1.65" fill="#3F2412"/>
<circle cx="167.88" cy="106.06" r="1.65" fill="#3F2412"/>
<circle cx="175.76" cy="106.06" r="1.65" fill="#3F2412"/>
<circle cx="195.45" cy="106.06" r="1.65" fill="#3F2412"/>
<circle cx="199.39" cy="106.06" r="1.65" fill="#3F2412"/>
<circle cx="203.33" cy="106.06" r="1.65" fill="#3F2412"/>
<circle cx="215.15" cy="106.06" r="1.65" fill="#3F2412"/>
<circle cx="219.09" cy="106.06" r="1.65" fill="#3F2412"/>
<circle cx="104.85" cy="110.00" r="1.65" fill="#3F2412"/>
<circle cx="108.79" cy="110.00" r="1.65" fill="#3F2412"/>
<circle cx="120.61" cy="110.00" r="1.65" fill="#3F2412"/>
<circle cx="124.55" cy="110.00" r="1.65" fill="#3F2412"/>
<circle cx="128.48" cy="110.00" r="1.65" fill="#3F2412"/>
<circle cx="132.42" cy="110.00" r="1.65" fill="#3F2412"/>
<circle cx="136.36" cy="110.00" r="1.65" fill="#3F2412"/>
<circle cx="140.30" cy="110.00" r="1.65" fill="#3F2412"/>
<circle cx="144.24" cy="110.00" r="1.65" fill="#3F2412"/>
<circle cx="152.12" cy="110.00" r="1.65" fill="#3F2412"/>
<circle cx="163.94" cy="110.00" r="1.65" fill="#3F2412"/>
<circle cx="175.76" cy="110.00" r="1.65" fill="#3F2412"/>
<circle cx="187.58" cy="110.00" r="1.65" fill="#3F2412"/>
<circle cx="195.45" cy="110.00" r="1.65" fill="#3F2412"/>
<circle cx="203.33" cy="110.00" r="1.65" fill="#3F2412"/>
<circle cx="207.27" cy="110.00" r="1.65" fill="#3F2412"/>
<circle cx="215.15" cy="110.00" r="1.65" fill="#3F2412"/>
<circle cx="223.03" cy="110.00" r="1.65" fill="#3F2412"/>
<circle cx="100.91" cy="113.94" r="1.65" fill="#3F2412"/>
<circle cx="104.85" cy="113.94" r="1.65" fill="#3F2412"/>
<circle cx="112.73" cy="113.94" r="1.65" fill="#3F2412"/>
<circle cx="116.67" cy="113.94" r="1.65" fill="#3F2412"/>
<circle cx="140.30" cy="113.94" r="1.65" fill="#3F2412"/>
<circle cx="144.24" cy="113.94" r="1.65" fill="#3F2412"/>
<circle cx="148.18" cy="113.94" r="1.65" fill="#3F2412"/>
<circle cx="152.12" cy="113.94" r="1.65" fill="#3F2412"/>
<circle cx="163.94" cy="113.94" r="1.65" fill="#3F2412"/>
<circle cx="167.88" cy="113.94" r="1.65" fill="#3F2412"/>
<circle cx="175.76" cy="113.94" r="1.65" fill="#3F2412"/>
<circle cx="179.70" cy="113.94" r="1.65" fill="#3F2412"/>
<circle cx="187.58" cy="113.94" r="1.65" fill="#3F2412"/>
<circle cx="191.52" cy="113.94" r="1.65" fill="#3F2412"/>
<circle cx="199.39" cy="113.94" r="1.65" fill="#3F2412"/>
<circle cx="203.33" cy="113.94" r="1.65" fill="#3F2412"/>
<circle cx="223.03" cy="113.94" r="1.65" fill="#3F2412"/>
<circle cx="96.97" cy="117.88" r="1.65" fill="#3F2412"/>
<circle cx="108.79" cy="117.88" r="1.65" fill="#3F2412"/>
<circle cx="120.61" cy="117.88" r="1.65" fill="#3F2412"/>
<circle cx="128.48" cy="117.88" r="1.65" fill="#3F2412"/>
<circle cx="136.36" cy="117.88" r="1.65" fill="#3F2412"/>
<circle cx="152.12" cy="117.88" r="1.65" fill="#3F2412"/>
<circle cx="156.06" cy="117.88" r="1.65" fill="#3F2412"/>
<circle cx="163.94" cy="117.88" r="1.65" fill="#3F2412"/>
<circle cx="167.88" cy="117.88" r="1.65" fill="#3F2412"/>
<circle cx="187.58" cy="117.88" r="1.65" fill="#3F2412"/>
<circle cx="195.45" cy="117.88" r="1.65" fill="#3F2412"/>
<circle cx="199.39" cy="117.88" r="1.65" fill="#3F2412"/>
<circle cx="203.33" cy="117.88" r="1.65" fill="#3F2412"/>
<circle cx="207.27" cy="117.88" r="1.65" fill="#3F2412"/>
<circle cx="211.21" cy="117.88" r="1.65" fill="#3F2412"/>
<circle cx="215.15" cy="117.88" r="1.65" fill="#3F2412"/>
<circle cx="223.03" cy="117.88" r="1.65" fill="#3F2412"/>
<circle cx="100.91" cy="121.82" r="1.65" fill="#3F2412"/>
<circle cx="108.79" cy="121.82" r="1.65" fill="#3F2412"/>
<circle cx="116.67" cy="121.82" r="1.65" fill="#3F2412"/>
<circle cx="124.55" cy="121.82" r="1.65" fill="#3F2412"/>
<circle cx="132.42" cy="121.82" r="1.65" fill="#3F2412"/>
<circle cx="144.24" cy="121.82" r="1.65" fill="#3F2412"/>
<circle cx="152.12" cy="121.82" r="1.65" fill="#3F2412"/>
<circle cx="160.00" cy="121.82" r="1.65" fill="#3F2412"/>
<circle cx="163.94" cy="121.82" r="1.65" fill="#3F2412"/>
<circle cx="167.88" cy="121.82" r="1.65" fill="#3F2412"/>
<circle cx="187.58" cy="121.82" r="1.65" fill="#3F2412"/>
<circle cx="191.52" cy="121.82" r="1.65" fill="#3F2412"/>
<circle cx="195.45" cy="121.82" r="1.65" fill="#3F2412"/>
<circle cx="203.33" cy="121.82" r="1.65" fill="#3F2412"/>
<circle cx="207.27" cy="121.82" r="1.65" fill="#3F2412"/>
<circle cx="211.21" cy="121.82" r="1.65" fill="#3F2412"/>
<circle cx="215.15" cy="121.82" r="1.65" fill="#3F2412"/>
<circle cx="96.97" cy="125.76" r="1.65" fill="#3F2412"/>
<circle cx="104.85" cy="125.76" r="1.65" fill="#3F2412"/>
<circle cx="112.73" cy="125.76" r="1.65" fill="#3F2412"/>
<circle cx="116.67" cy="125.76" r="1.65" fill="#3F2412"/>
<circle cx="120.61" cy="125.76" r="1.65" fill="#3F2412"/>
<circle cx="124.55" cy="125.76" r="1.65" fill="#3F2412"/>
<circle cx="132.42" cy="125.76" r="1.65" fill="#3F2412"/>
<circle cx="136.36" cy="125.76" r="1.65" fill="#3F2412"/>
<circle cx="148.18" cy="125.76" r="1.65" fill="#3F2412"/>
<circle cx="152.12" cy="125.76" r="1.65" fill="#3F2412"/>
<circle cx="156.06" cy="125.76" r="1.65" fill="#3F2412"/>
<circle cx="160.00" cy="125.76" r="1.65" fill="#3F2412"/>
<circle cx="171.82" cy="125.76" r="1.65" fill="#3F2412"/>
<circle cx="175.76" cy="125.76" r="1.65" fill="#3F2412"/>
<circle cx="183.64" cy="125.76" r="1.65" fill="#3F2412"/>
<circle cx="191.52" cy="125.76" r="1.65" fill="#3F2412"/>
<circle cx="203.33" cy="125.76" r="1.65" fill="#3F2412"/>
<circle cx="207.27" cy="125.76" r="1.65" fill="#3F2412"/>
<circle cx="211.21" cy="125.76" r="1.65" fill="#3F2412"/>
<circle cx="219.09" cy="125.76" r="1.65" fill="#3F2412"/>
<circle cx="96.97" cy="129.70" r="1.65" fill="#3F2412"/>
<circle cx="104.85" cy="129.70" r="1.65" fill="#3F2412"/>
<circle cx="116.67" cy="129.70" r="1.65" fill="#3F2412"/>
<circle cx="124.55" cy="129.70" r="1.65" fill="#3F2412"/>
<circle cx="128.48" cy="129.70" r="1.65" fill="#3F2412"/>
<circle cx="140.30" cy="129.70" r="1.65" fill="#3F2412"/>
<circle cx="160.00" cy="129.70" r="1.65" fill="#3F2412"/>
<circle cx="171.82" cy="129.70" r="1.65" fill="#3F2412"/>
<circle cx="175.76" cy="129.70" r="1.65" fill="#3F2412"/>
<circle cx="179.70" cy="129.70" r="1.65" fill="#3F2412"/>
<circle cx="195.45" cy="129.70" r="1.65" fill="#3F2412"/>
<circle cx="199.39" cy="129.70" r="1.65" fill="#3F2412"/>
<circle cx="207.27" cy="129.70" r="1.65" fill="#3F2412"/>
<circle cx="211.21" cy="129.70" r="1.65" fill="#3F2412"/>
<circle cx="215.15" cy="129.70" r="1.65" fill="#3F2412"/>
<circle cx="96.97" cy="133.64" r="1.65" fill="#3F2412"/>
<circle cx="120.61" cy="133.64" r="1.65" fill="#3F2412"/>
<circle cx="132.42" cy="133.64" r="1.65" fill="#3F2412"/>
<circle cx="140.30" cy="133.64" r="1.65" fill="#3F2412"/>
<circle cx="148.18" cy="133.64" r="1.65" fill="#3F2412"/>
<circle cx="152.12" cy="133.64" r="1.65" fill="#3F2412"/>
<circle cx="156.06" cy="133.64" r="1.65" fill="#3F2412"/>
<circle cx="160.00" cy="133.64" r="1.65" fill="#3F2412"/>
<circle cx="175.76" cy="133.64" r="1.65" fill="#3F2412"/>
<circle cx="183.64" cy="133.64" r="1.65" fill="#3F2412"/>
<circle cx="187.58" cy="133.64" r="1.65" fill="#3F2412"/>
<circle cx="191.52" cy="133.64" r="1.65" fill="#3F2412"/>
<circle cx="207.27" cy="133.64" r="1.65" fill="#3F2412"/>
<circle cx="211.21" cy="133.64" r="1.65" fill="#3F2412"/>
<circle cx="219.09" cy="133.64" r="1.65" fill="#3F2412"/>
<circle cx="96.97" cy="137.58" r="1.65" fill="#3F2412"/>
<circle cx="104.85" cy="137.58" r="1.65" fill="#3F2412"/>
<circle cx="116.67" cy="137.58" r="1.65" fill="#3F2412"/>
<circle cx="128.48" cy="137.58" r="1.65" fill="#3F2412"/>
<circle cx="132.42" cy="137.58" r="1.65" fill="#3F2412"/>
<circle cx="136.36" cy="137.58" r="1.65" fill="#3F2412"/>
<circle cx="144.24" cy="137.58" r="1.65" fill="#3F2412"/>
<circle cx="156.06" cy="137.58" r="1.65" fill="#3F2412"/>
<circle cx="160.00" cy="137.58" r="1.65" fill="#3F2412"/>
<circle cx="171.82" cy="137.58" r="1.65" fill="#3F2412"/>
<circle cx="175.76" cy="137.58" r="1.65" fill="#3F2412"/>
<circle cx="187.58" cy="137.58" r="1.65" fill="#3F2412"/>
<circle cx="203.33" cy="137.58" r="1.65" fill="#3F2412"/>
<circle cx="211.21" cy="137.58" r="1.65" fill="#3F2412"/>
<circle cx="215.15" cy="137.58" r="1.65" fill="#3F2412"/>
<circle cx="219.09" cy="137.58" r="1.65" fill="#3F2412"/>
<circle cx="96.97" cy="141.52" r="1.65" fill="#3F2412"/>
<circle cx="100.91" cy="141.52" r="1.65" fill="#3F2412"/>
<circle cx="116.67" cy="141.52" r="1.65" fill="#3F2412"/>
<circle cx="120.61" cy="141.52" r="1.65" fill="#3F2412"/>
<circle cx="124.55" cy="141.52" r="1.65" fill="#3F2412"/>
<circle cx="128.48" cy="141.52" r="1.65" fill="#3F2412"/>
<circle cx="140.30" cy="141.52" r="1.65" fill="#3F2412"/>
<circle cx="160.00" cy="141.52" r="1.65" fill="#3F2412"/>
<circle cx="167.88" cy="141.52" r="1.65" fill="#3F2412"/>
<circle cx="171.82" cy="141.52" r="1.65" fill="#3F2412"/>
<circle cx="175.76" cy="141.52" r="1.65" fill="#3F2412"/>
<circle cx="191.52" cy="141.52" r="1.65" fill="#3F2412"/>
<circle cx="195.45" cy="141.52" r="1.65" fill="#3F2412"/>
<circle cx="199.39" cy="141.52" r="1.65" fill="#3F2412"/>
<circle cx="203.33" cy="141.52" r="1.65" fill="#3F2412"/>
<circle cx="207.27" cy="141.52" r="1.65" fill="#3F2412"/>
<circle cx="223.03" cy="141.52" r="1.65" fill="#3F2412"/>
<circle cx="128.48" cy="145.45" r="1.65" fill="#3F2412"/>
<circle cx="136.36" cy="145.45" r="1.65" fill="#3F2412"/>
<circle cx="140.30" cy="145.45" r="1.65" fill="#3F2412"/>
<circle cx="152.12" cy="145.45" r="1.65" fill="#3F2412"/>
<circle cx="156.06" cy="145.45" r="1.65" fill="#3F2412"/>
<circle cx="160.00" cy="145.45" r="1.65" fill="#3F2412"/>
<circle cx="175.76" cy="145.45" r="1.65" fill="#3F2412"/>
<circle cx="187.58" cy="145.45" r="1.65" fill="#3F2412"/>
<circle cx="191.52" cy="145.45" r="1.65" fill="#3F2412"/>
<circle cx="207.27" cy="145.45" r="1.65" fill="#3F2412"/>
<circle cx="215.15" cy="145.45" r="1.65" fill="#3F2412"/>
<circle cx="219.09" cy="145.45" r="1.65" fill="#3F2412"/>
<circle cx="223.03" cy="145.45" r="1.65" fill="#3F2412"/>
<circle cx="144.24" cy="149.39" r="1.65" fill="#3F2412"/>
<circle cx="156.06" cy="149.39" r="1.65" fill="#3F2412"/>
<circle cx="160.00" cy="149.39" r="1.65" fill="#3F2412"/>
<circle cx="163.94" cy="149.39" r="1.65" fill="#3F2412"/>
<circle cx="175.76" cy="149.39" r="1.65" fill="#3F2412"/>
<circle cx="179.70" cy="149.39" r="1.65" fill="#3F2412"/>
<circle cx="187.58" cy="149.39" r="1.65" fill="#3F2412"/>
<circle cx="191.52" cy="149.39" r="1.65" fill="#3F2412"/>
<circle cx="199.39" cy="149.39" r="1.65" fill="#3F2412"/>
<circle cx="207.27" cy="149.39" r="1.65" fill="#3F2412"/>
<circle cx="215.15" cy="149.39" r="1.65" fill="#3F2412"/>
<circle cx="219.09" cy="149.39" r="1.65" fill="#3F2412"/>
<circle cx="128.48" cy="153.33" r="1.65" fill="#3F2412"/>
<circle cx="148.18" cy="153.33" r="1.65" fill="#3F2412"/>
<circle cx="152.12" cy="153.33" r="1.65" fill="#3F2412"/>
<circle cx="156.06" cy="153.33" r="1.65" fill="#3F2412"/>
<circle cx="160.00" cy="153.33" r="1.65" fill="#3F2412"/>
<circle cx="163.94" cy="153.33" r="1.65" fill="#3F2412"/>
<circle cx="167.88" cy="153.33" r="1.65" fill="#3F2412"/>
<circle cx="175.76" cy="153.33" r="1.65" fill="#3F2412"/>
<circle cx="187.58" cy="153.33" r="1.65" fill="#3F2412"/>
<circle cx="191.52" cy="153.33" r="1.65" fill="#3F2412"/>
<circle cx="207.27" cy="153.33" r="1.65" fill="#3F2412"/>
<circle cx="211.21" cy="153.33" r="1.65" fill="#3F2412"/>
<circle cx="215.15" cy="153.33" r="1.65" fill="#3F2412"/>
<circle cx="219.09" cy="153.33" r="1.65" fill="#3F2412"/>
<circle cx="132.42" cy="157.27" r="1.65" fill="#3F2412"/>
<circle cx="136.36" cy="157.27" r="1.65" fill="#3F2412"/>
<circle cx="140.30" cy="157.27" r="1.65" fill="#3F2412"/>
<circle cx="152.12" cy="157.27" r="1.65" fill="#3F2412"/>
<circle cx="160.00" cy="157.27" r="1.65" fill="#3F2412"/>
<circle cx="175.76" cy="157.27" r="1.65" fill="#3F2412"/>
<circle cx="179.70" cy="157.27" r="1.65" fill="#3F2412"/>
<circle cx="191.52" cy="157.27" r="1.65" fill="#3F2412"/>
<circle cx="195.45" cy="157.27" r="1.65" fill="#3F2412"/>
<circle cx="199.39" cy="157.27" r="1.65" fill="#3F2412"/>
<circle cx="203.33" cy="157.27" r="1.65" fill="#3F2412"/>
<circle cx="207.27" cy="157.27" r="1.65" fill="#3F2412"/>
<circle cx="219.09" cy="157.27" r="1.65" fill="#3F2412"/>
<circle cx="223.03" cy="157.27" r="1.65" fill="#3F2412"/>
<circle cx="132.42" cy="161.21" r="1.65" fill="#3F2412"/>
<circle cx="136.36" cy="161.21" r="1.65" fill="#3F2412"/>
<circle cx="140.30" cy="161.21" r="1.65" fill="#3F2412"/>
<circle cx="144.24" cy="161.21" r="1.65" fill="#3F2412"/>
<circle cx="152.12" cy="161.21" r="1.65" fill="#3F2412"/>
<circle cx="160.00" cy="161.21" r="1.65" fill="#3F2412"/>
<circle cx="167.88" cy="161.21" r="1.65" fill="#3F2412"/>
<circle cx="171.82" cy="161.21" r="1.65" fill="#3F2412"/>
<circle cx="175.76" cy="161.21" r="1.65" fill="#3F2412"/>
<circle cx="179.70" cy="161.21" r="1.65" fill="#3F2412"/>
<circle cx="183.64" cy="161.21" r="1.65" fill="#3F2412"/>
<circle cx="195.45" cy="161.21" r="1.65" fill="#3F2412"/>
<circle cx="203.33" cy="161.21" r="1.65" fill="#3F2412"/>
<circle cx="207.27" cy="161.21" r="1.65" fill="#3F2412"/>
<circle cx="215.15" cy="161.21" r="1.65" fill="#3F2412"/>
<circle cx="219.09" cy="161.21" r="1.65" fill="#3F2412"/>
<circle cx="136.36" cy="165.15" r="1.65" fill="#3F2412"/>
<circle cx="140.30" cy="165.15" r="1.65" fill="#3F2412"/>
<circle cx="144.24" cy="165.15" r="1.65" fill="#3F2412"/>
<circle cx="152.12" cy="165.15" r="1.65" fill="#3F2412"/>
<circle cx="160.00" cy="165.15" r="1.65" fill="#3F2412"/>
<circle cx="163.94" cy="165.15" r="1.65" fill="#3F2412"/>
<circle cx="175.76" cy="165.15" r="1.65" fill="#3F2412"/>
<circle cx="207.27" cy="165.15" r="1.65" fill="#3F2412"/>
<circle cx="211.21" cy="165.15" r="1.65" fill="#3F2412"/>
<circle cx="215.15" cy="165.15" r="1.65" fill="#3F2412"/>
<circle cx="219.09" cy="165.15" r="1.65" fill="#3F2412"/>
<circle cx="223.03" cy="165.15" r="1.65" fill="#3F2412"/>
<circle cx="132.42" cy="169.09" r="1.65" fill="#3F2412"/>
<circle cx="140.30" cy="169.09" r="1.65" fill="#3F2412"/>
<circle cx="144.24" cy="169.09" r="1.65" fill="#3F2412"/>
<circle cx="156.06" cy="169.09" r="1.65" fill="#3F2412"/>
<circle cx="160.00" cy="169.09" r="1.65" fill="#3F2412"/>
<circle cx="163.94" cy="169.09" r="1.65" fill="#3F2412"/>
<circle cx="167.88" cy="169.09" r="1.65" fill="#3F2412"/>
<circle cx="171.82" cy="169.09" r="1.65" fill="#3F2412"/>
<circle cx="175.76" cy="169.09" r="1.65" fill="#3F2412"/>
<circle cx="183.64" cy="169.09" r="1.65" fill="#3F2412"/>
<circle cx="215.15" cy="169.09" r="1.65" fill="#3F2412"/>
<circle cx="132.42" cy="173.03" r="1.65" fill="#3F2412"/>
<circle cx="144.24" cy="173.03" r="1.65" fill="#3F2412"/>
<circle cx="152.12" cy="173.03" r="1.65" fill="#3F2412"/>
<circle cx="160.00" cy="173.03" r="1.65" fill="#3F2412"/>
<circle cx="175.76" cy="173.03" r="1.65" fill="#3F2412"/>
<circle cx="183.64" cy="173.03" r="1.65" fill="#3F2412"/>
<circle cx="187.58" cy="173.03" r="1.65" fill="#3F2412"/>
<circle cx="191.52" cy="173.03" r="1.65" fill="#3F2412"/>
<circle cx="215.15" cy="173.03" r="1.65" fill="#3F2412"/>
<circle cx="219.09" cy="173.03" r="1.65" fill="#3F2412"/>
<rect x="95.00" y="45.00" width="27.58" height="27.58" rx="6.07" ry="6.07" fill="#3F2412"/>
<rect x="98.94" y="48.94" width="19.70" height="19.70" rx="4.33" ry="4.33" fill="white"/>
<rect x="102.88" y="52.88" width="11.82" height="11.82" rx="2.60" ry="2.60" fill="#3F2412"/>
<rect x="197.42" y="45.00" width="27.58" height="27.58" rx="6.07" ry="6.07" fill="#3F2412"/>
<rect x="201.36" y="48.94" width="19.70" height="19.70" rx="4.33" ry="4.33" fill="white"/>
<rect x="205.30" y="52.88" width="11.82" height="11.82" rx="2.60" ry="2.60" fill="#3F2412"/>
<rect x="95.00" y="147.42" width="27.58" height="27.58" rx="6.07" ry="6.07" fill="#3F2412"/>
<rect x="98.94" y="151.36" width="19.70" height="19.70" rx="4.33" ry="4.33" fill="white"/>
<rect x="102.88" y="155.30" width="11.82" height="11.82" rx="2.60" ry="2.60" fill="#3F2412"/><text x="160" y="195" text-anchor="middle" fill="#3F2412" font-family="Georgia, serif" font-style="italic" font-size="22" font-weight="500">Parsley</text><text x="160" y="478" text-anchor="middle" fill="#5A3820" font-family="Georgia, serif" font-size="9" letter-spacing="3">planum</text></svg>