<svg xmlns="http://www.w3.org/2000/svg" width="46.0mm" height="46.0mm" viewBox="0 0 460 460"><circle cx="230" cy="230" r="230" fill="#F5EFE3"/><circle cx="230" cy="230" r="186" fill="none" stroke="#A9853F" stroke-width="2.4"/><circle cx="230" cy="230" r="178" fill="none" stroke="#A9853F" stroke-width="1" opacity="0.7"/><line x1="400.0" y1="230.0" x2="394.0" y2="230.0" stroke="#A9853F" stroke-width="1" opacity="0.55"/><line x1="399.1" y1="247.8" x2="393.1" y2="247.1" stroke="#A9853F" stroke-width="1" opacity="0.55"/><line x1="396.3" y1="265.3" x2="390.4" y2="264.1" stroke="#A9853F" stroke-width="1" opacity="0.55"/><line x1="391.7" y1="282.5" x2="386.0" y2="280.7" stroke="#A9853F" stroke-width="1" opacity="0.55"/><line x1="385.3" y1="299.1" x2="379.8" y2="296.7" stroke="#A9853F" stroke-width="1" opacity="0.55"/><line x1="377.2" y1="315.0" x2="372.0" y2="312.0" stroke="#A9853F" stroke-width="1" opacity="0.55"/><line x1="367.5" y1="329.9" x2="362.7" y2="326.4" stroke="#A9853F" stroke-width="1" opacity="0.55"/><line x1="356.3" y1="343.8" x2="351.9" y2="339.7" stroke="#A9853F" stroke-width="1" opacity="0.55"/><line x1="343.8" y1="356.3" x2="339.7" y2="351.9" stroke="#A9853F" stroke-width="1" opacity="0.55"/><line x1="329.9" y1="367.5" x2="326.4" y2="362.7" stroke="#A9853F" stroke-width="1" opacity="0.55"/><line x1="315.0" y1="377.2" x2="312.0" y2="372.0" stroke="#A9853F" stroke-width="1" opacity="0.55"/><line x1="299.1" y1="385.3" x2="296.7" y2="379.8" stroke="#A9853F" stroke-width="1" opacity="0.55"/><line x1="282.5" y1="391.7" x2="280.7" y2="386.0" stroke="#A9853F" stroke-width="1" opacity="0.55"/><line x1="265.3" y1="396.3" x2="264.1" y2="390.4" stroke="#A9853F" stroke-width="1" opacity="0.55"/><line x1="247.8" y1="399.1" x2="247.1" y2="393.1" stroke="#A9853F" stroke-width="1" opacity="0.55"/><line x1="230.0" y1="400.0" x2="230.0" y2="394.0" stroke="#A9853F" stroke-width="1" opacity="0.55"/><line x1="212.2" y1="399.1" x2="212.9" y2="393.1" stroke="#A9853F" stroke-width="1" opacity="0.55"/><line x1="194.7" y1="396.3" x2="195.9" y2="390.4" stroke="#A9853F" stroke-width="1" opacity="0.55"/><line x1="177.5" y1="391.7" x2="179.3" y2="386.0" stroke="#A9853F" stroke-width="1" opacity="0.55"/><line x1="160.9" y1="385.3" x2="163.3" y2="379.8" stroke="#A9853F" stroke-width="1" opacity="0.55"/><line x1="145.0" y1="377.2" x2="148.0" y2="372.0" stroke="#A9853F" stroke-width="1" opacity="0.55"/><line x1="130.1" y1="367.5" x2="133.6" y2="362.7" stroke="#A9853F" stroke-width="1" opacity="0.55"/><line x1="116.2" y1="356.3" x2="120.3" y2="351.9" stroke="#A9853F" stroke-width="1" opacity="0.55"/><line x1="103.7" y1="343.8" x2="108.1" y2="339.7" stroke="#A9853F" stroke-width="1" opacity="0.55"/><line x1="92.5" y1="329.9" x2="97.3" y2="326.4" stroke="#A9853F" stroke-width="1" opacity="0.55"/><line x1="82.8" y1="315.0" x2="88.0" y2="312.0" stroke="#A9853F" stroke-width="1" opacity="0.55"/><line x1="74.7" y1="299.1" x2="80.2" y2="296.7" stroke="#A9853F" stroke-width="1" opacity="0.55"/><line x1="68.3" y1="282.5" x2="74.0" y2="280.7" stroke="#A9853F" stroke-width="1" opacity="0.55"/><line x1="63.7" y1="265.3" x2="69.6" y2="264.1" stroke="#A9853F" stroke-width="1" opacity="0.55"/><line x1="60.9" y1="247.8" x2="66.9" y2="247.1" stroke="#A9853F" stroke-width="1" opacity="0.55"/><line x1="60.0" y1="230.0" x2="66.0" y2="230.0" stroke="#A9853F" stroke-width="1" opacity="0.55"/><line x1="60.9" y1="212.2" x2="66.9" y2="212.9" stroke="#A9853F" stroke-width="1" opacity="0.55"/><line x1="63.7" y1="194.7" x2="69.6" y2="195.9" stroke="#A9853F" stroke-width="1" opacity="0.55"/><line x1="68.3" y1="177.5" x2="74.0" y2="179.3" stroke="#A9853F" stroke-width="1" opacity="0.55"/><line x1="74.7" y1="160.9" x2="80.2" y2="163.3" stroke="#A9853F" stroke-width="1" opacity="0.55"/><line x1="82.8" y1="145.0" x2="88.0" y2="148.0" stroke="#A9853F" stroke-width="1" opacity="0.55"/><line x1="92.5" y1="130.1" x2="97.3" y2="133.6" stroke="#A9853F" stroke-width="1" opacity="0.55"/><line x1="103.7" y1="116.2" x2="108.1" y2="120.3" stroke="#A9853F" stroke-width="1" opacity="0.55"/><line x1="116.2" y1="103.7" x2="120.3" y2="108.1" stroke="#A9853F" stroke-width="1" opacity="0.55"/><line x1="130.1" y1="92.5" x2="133.6" y2="97.3" stroke="#A9853F" stroke-width="1" opacity="0.55"/><line x1="145.0" y1="82.8" x2="148.0" y2="88.0" stroke="#A9853F" stroke-width="1" opacity="0.55"/><line x1="160.9" y1="74.7" x2="163.3" y2="80.2" stroke="#A9853F" stroke-width="1" opacity="0.55"/><line x1="177.5" y1="68.3" x2="179.3" y2="74.0" stroke="#A9853F" stroke-width="1" opacity="0.55"/><line x1="194.7" y1="63.7" x2="195.9" y2="69.6" stroke="#A9853F" stroke-width="1" opacity="0.55"/><line x1="212.2" y1="60.9" x2="212.9" y2="66.9" stroke="#A9853F" stroke-width="1" opacity="0.55"/><line x1="230.0" y1="60.0" x2="230.0" y2="66.0" stroke="#A9853F" stroke-width="1" opacity="0.55"/><line x1="247.8" y1="60.9" x2="247.1" y2="66.9" stroke="#A9853F" stroke-width="1" opacity="0.55"/><line x1="265.3" y1="63.7" x2="264.1" y2="69.6" stroke="#A9853F" stroke-width="1" opacity="0.55"/><line x1="282.5" y1="68.3" x2="280.7" y2="74.0" stroke="#A9853F" stroke-width="1" opacity="0.55"/><line x1="299.1" y1="74.7" x2="296.7" y2="80.2" stroke="#A9853F" stroke-width="1" opacity="0.55"/><line x1="315.0" y1="82.8" x2="312.0" y2="88.0" stroke="#A9853F" stroke-width="1" opacity="0.55"/><line x1="329.9" y1="92.5" x2="326.4" y2="97.3" stroke="#A9853F" stroke-width="1" opacity="0.55"/><line x1="343.8" y1="103.7" x2="339.7" y2="108.1" stroke="#A9853F" stroke-width="1" opacity="0.55"/><line x1="356.3" y1="116.2" x2="351.9" y2="120.3" stroke="#A9853F" stroke-width="1" opacity="0.55"/><line x1="367.5" y1="130.1" x2="362.7" y2="133.6" stroke="#A9853F" stroke-width="1" opacity="0.55"/><line x1="377.2" y1="145.0" x2="372.0" y2="148.0" stroke="#A9853F" stroke-width="1" opacity="0.55"/><line x1="385.3" y1="160.9" x2="379.8" y2="163.3" stroke="#A9853F" stroke-width="1" opacity="0.55"/><line x1="391.7" y1="177.5" x2="386.0" y2="179.3" stroke="#A9853F" stroke-width="1" opacity="0.55"/><line x1="396.3" y1="194.7" x2="390.4" y2="195.9" stroke="#A9853F" stroke-width="1" opacity="0.55"/><line x1="399.1" y1="212.2" x2="393.1" y2="212.9" stroke="#A9853F" stroke-width="1" opacity="0.55"/><g transform="translate(230,236) scale(0.92)"><path d="M 0 120 C -8 40 8 -40 0 -120" stroke="#7C6230" stroke-width="3.4" fill="none" stroke-linecap="round"/><g transform="translate(0,88) rotate(-145)"><path d="M 0 0 C 13.0 -15 39.0 -15 52 0 C 39.0 15 13.0 15 0 0 Z" fill="none" stroke="#7C6230" stroke-width="2.8899999999999997" stroke-linejoin="round"/><path d="M 4.16 0 L 46.800000000000004 0" stroke="#7C6230" stroke-width="2.0229999999999997" stroke-linecap="round"/></g><g transform="translate(0,88) rotate(-35)"><path d="M 0 0 C 13.0 -15 39.0 -15 52 0 C 39.0 15 13.0 15 0 0 Z" fill="none" stroke="#7C6230" stroke-width="2.8899999999999997" stroke-linejoin="round"/><path d="M 4.16 0 L 46.800000000000004 0" stroke="#7C6230" stroke-width="2.0229999999999997" stroke-linecap="round"/></g><g transform="translate(0,44) rotate(-140)"><path d="M 0 0 C 14.5 -16 43.5 -16 58 0 C 43.5 16 14.5 16 0 0 Z" fill="none" stroke="#7C6230" stroke-width="2.8899999999999997" stroke-linejoin="round"/><path d="M 4.64 0 L 52.2 0" stroke="#7C6230" stroke-width="2.0229999999999997" stroke-linecap="round"/></g><g transform="translate(0,44) rotate(-40)"><path d="M 0 0 C 14.5 -16 43.5 -16 58 0 C 43.5 16 14.5 16 0 0 Z" fill="none" stroke="#7C6230" stroke-width="2.8899999999999997" stroke-linejoin="round"/><path d="M 4.64 0 L 52.2 0" stroke="#7C6230" stroke-width="2.0229999999999997" stroke-linecap="round"/></g><g transform="translate(0,0) rotate(-142)"><path d="M 0 0 C 15.5 -17 46.5 -17 62 0 C 46.5 17 15.5 17 0 0 Z" fill="none" stroke="#7C6230" stroke-width="2.8899999999999997" stroke-linejoin="round"/><path d="M 4.96 0 L 55.800000000000004 0" stroke="#7C6230" stroke-width="2.0229999999999997" stroke-linecap="round"/></g><g transform="translate(0,0) rotate(-38)"><path d="M 0 0 C 15.5 -17 46.5 -17 62 0 C 46.5 17 15.5 17 0 0 Z" fill="none" stroke="#7C6230" stroke-width="2.8899999999999997" stroke-linejoin="round"/><path d="M 4.96 0 L 55.800000000000004 0" stroke="#7C6230" stroke-width="2.0229999999999997" stroke-linecap="round"/></g><g transform="translate(0,-44) rotate(-138)"><path d="M 0 0 C 14.0 -15 42.0 -15 56 0 C 42.0 15 14.0 15 0 0 Z" fill="none" stroke="#7C6230" stroke-width="2.8899999999999997" stroke-linejoin="round"/><path d="M 4.48 0 L 50.4 0" stroke="#7C6230" stroke-width="2.0229999999999997" stroke-linecap="round"/></g><g transform="translate(0,-44) rotate(-42)"><path d="M 0 0 C 14.0 -15 42.0 -15 56 0 C 42.0 15 14.0 15 0 0 Z" fill="none" stroke="#7C6230" stroke-width="2.8899999999999997" stroke-linejoin="round"/><path d="M 4.48 0 L 50.4 0" stroke="#7C6230" stroke-width="2.0229999999999997" stroke-linecap="round"/></g><g transform="translate(0,-88) rotate(-132)"><path d="M 0 0 C 11.5 -13 34.5 -13 46 0 C 34.5 13 11.5 13 0 0 Z" fill="none" stroke="#7C6230" stroke-width="2.8899999999999997" stroke-linejoin="round"/><path d="M 3.68 0 L 41.4 0" stroke="#7C6230" stroke-width="2.0229999999999997" stroke-linecap="round"/></g><g transform="translate(0,-88) rotate(-48)"><path d="M 0 0 C 11.5 -13 34.5 -13 46 0 C 34.5 13 11.5 13 0 0 Z" fill="none" stroke="#7C6230" stroke-width="2.8899999999999997" stroke-linejoin="round"/><path d="M 3.68 0 L 41.4 0" stroke="#7C6230" stroke-width="2.0229999999999997" stroke-linecap="round"/></g><circle cx="0" cy="-126" r="3.74" fill="#7C6230"/></g><defs><path id="d1a" d="M 82 230 A 148 148 0 0 0 378 230"/></defs><text font-family="Avenir Next,Futura,sans-serif" font-size="19" font-weight="500" letter-spacing="6" fill="#7C6230"><textPath href="#d1a" startOffset="50%" text-anchor="middle">P L A N U M</textPath></text><path d="M 233.12 102.4 A 5.6000000000000005 5.6000000000000005 0 0 1 233.12 113.6" stroke="#A9853F" stroke-width="2.08" fill="none" stroke-linecap="round" opacity="0.9"/><path d="M 234.08 97.6 A 10.4 10.4 0 0 1 234.08 118.4" stroke="#A9853F" stroke-width="2.08" fill="none" stroke-linecap="round" opacity="0.72"/><path d="M 235.04 92.8 A 15.200000000000001 15.200000000000001 0 0 1 235.04 123.2" stroke="#A9853F" stroke-width="2.08" fill="none" stroke-linecap="round" opacity="0.54"/><circle cx="229.6" cy="108" r="2.08" fill="#A9853F" opacity="0.9"/><circle cx="230" cy="230" r="200" fill="none" stroke="#FF00FF" stroke-width="1.5" stroke-dasharray="8 6" opacity="0.9"/></svg>